<svg width="47" height="64" viewBox="0 0 47 64" fill="none" xmlns="http://www.w3.org/2000/svg">
<path fill-rule="evenodd" clip-rule="evenodd" d="M31.5904 52.993C33.9356 51.6055 35.8785 49.7663 37.6016 48.2532L39.5587 46.153C41.1065 44.4978 41.5296 43.6613 42.6188 42.4381C42.6384 42.4161 42.6817 42.3675 42.7134 42.3324C42.0992 45.9341 34.3998 52.6159 32.0096 53.0599C31.2075 53.2088 31.8027 53.1266 31.5904 52.993ZM28.8223 47.7785C30.5375 44.6678 31.3028 45.6147 33.6088 38.8412C34.5574 39.0454 35.8534 39.7728 36.5003 40.2356C35.6292 41.8208 32.529 44.9509 31.0332 46.131C30.3013 46.7084 29.5541 47.4743 28.8223 47.7785ZM23.5752 46.8076C23.9251 46.1357 25.3865 44.7934 26.6571 42.3336C27.6176 40.4743 28.0798 38.8347 28.8466 36.8051L31.4908 37.7371C31.2251 39.9224 26.8242 47.9847 25.2031 47.721C24.7555 47.6482 23.8742 47.1113 23.5752 46.8076ZM21.6528 45.328C20.1687 44.7938 20.7014 44.1811 21.7096 40.4933C22.0263 39.3349 22.7789 35.8634 23.1991 35.0844C23.7551 35.1296 25.9555 35.7214 26.5069 35.9282C26.3406 38.6415 23.087 44.3292 21.6528 45.328ZM18.7135 42.6991C18.3098 42.4945 17.6602 41.4613 17.446 41.1592C16.8936 40.3801 16.5497 40.2149 16.5581 39.0859C16.5722 37.1869 17.1135 35.7802 17.6093 34.2516L20.769 34.5098C20.8109 35.2023 19.0444 41.9594 18.7135 42.6991ZM15.0703 34.07C15.0889 34.5912 14.8393 35.6639 14.4618 36.122L13.7376 34.0406L15.0703 34.07ZM39.7096 35.4032C39.4544 36.1815 38.4314 37.8007 37.8895 38.2845C35.8663 37.5672 32.9483 35.3547 26.7678 33.5775C24.1068 32.8124 19.6164 31.7926 16.8281 31.7362C15.682 31.713 14.0266 31.9389 13.1091 31.6005C12.6401 31.3405 12.3819 29.4392 12.38 28.8428C17.8694 28.5484 22.8504 28.6859 27.9207 30.0962C30.5407 30.8249 38.4857 33.7424 39.7096 35.4032ZM11.763 23.5628C13.1269 23.4293 14.4238 23.0755 15.9176 22.8761C24.9414 21.6717 35.4485 23.9336 42.1252 29.7747C42.103 30.6336 41.3304 32.2464 40.9637 33.0699C40.1448 32.9611 38.7268 31.9425 37.9234 31.4979C35.4017 30.1025 31.0816 28.485 28.3252 27.7862C24.502 26.817 20.3206 26.3405 16.2406 26.3461C14.8677 26.3481 13.0988 26.5844 11.9536 26.4871L11.763 23.5628ZM25.0669 50.2869C24.6261 50.9426 23.6551 51.2193 22.8464 51.6679C21.6477 52.3329 21.3669 52.0089 20.2343 51.3149C12.1402 46.356 7.73508 38.5602 6.42521 28.9769C6.24628 27.6679 5.73525 23.5345 6.02481 22.2972C6.20401 21.5314 8.73851 18.7143 9.32043 18.4185C9.51863 22.6809 9.3325 25.4824 10.124 29.5303C10.8027 33.0015 11.7521 35.5276 13.1722 38.4718C14.4488 41.1185 17.7391 45.3646 19.8266 46.8908C20.4132 47.3197 20.8418 47.6456 21.5004 48.1218C22.9612 49.178 24.4194 49.8008 25.0669 50.2869ZM24.1896 63.8175H24.5625C25.2964 60.6806 25.7879 58.745 26.2018 55.4221C26.4141 53.7178 26.023 52.602 26.9748 51.9301L30.2976 49.6573C31.7965 48.5342 32.7224 47.7177 33.841 46.6259C36.1313 44.3905 37.9258 42.5079 39.9967 39.4419C41.1062 37.799 43.8882 32.7085 44.3569 30.8926C45.1041 34.0283 43.3184 36.698 42.0033 38.9376C39.3112 43.5219 35.5787 47.4873 31.378 50.3462C28.5515 52.2698 27.2029 52.3096 27.0784 54.1409C27.0274 54.8912 27.0147 56.0922 27.0563 56.8391C28.8289 56.7397 29.928 55.6538 31.5274 56.4645C34.7064 58.0756 37.0592 58.6343 40.7882 58.0131C43.9233 57.4907 43.848 58.1203 45.4268 58.5503C45.8623 57.8125 46.2925 57.6942 46.7869 57.0522C44.2538 53.6972 37.4405 57.5073 33.7855 54.9259L38.1785 51.9315C45.9797 45.9856 48.796 35.5524 45.5256 25.8251C44.4486 22.6215 41.8966 18.736 39.8225 17.096C39.2997 17.8116 38.2632 18.5838 37.7266 19.5394C40.1228 20.7822 39.9004 20.4029 41.3882 22.6217C42.155 23.7653 43.5031 25.9099 43.0742 27.2717C42.2625 27.1356 41.435 26.4082 40.7699 25.9476C38.6976 24.5123 34.37 22.6224 34.0198 22.2592L40.8649 14.6047C44.1873 10.7664 43.3962 13.5075 45.4095 12.0001C47.0833 10.7469 46.6854 8.15696 44.937 7.28158C42.914 6.26868 40.8775 7.86356 40.8393 9.70448C40.7897 12.0917 41.5043 10.3766 38.3245 13.9989L31.5872 21.4837C30.5381 21.5031 29.7167 21.231 28.8307 20.9244C29.1206 16.9721 29.4988 12.8472 29.7456 8.72546C30.0637 3.41557 30.5316 6.18101 31.6292 4.01319C33.2364 0.839016 28.8619 -1.19615 27.0601 0.780077C26.5746 1.31248 26.1615 2.32814 26.3144 3.27647C26.5041 4.45217 27.3573 4.7355 27.579 5.32338C27.8816 6.12596 27.1332 13.4171 27.0266 14.4996C26.8361 16.4352 26.8039 18.6477 26.5111 20.5289C23.7084 20.4875 21.8135 20.0675 18.7035 20.3028C16.0128 20.5065 14.1266 20.9214 11.6082 21.244L11.6207 19.551C12.7936 18.8709 16.6896 17.9215 18.234 17.6864C25.6813 16.5529 26.1194 18.1482 25.9087 14.7477C23.2914 14.7016 20.8133 14.8907 18.3791 15.3234C15.6126 15.8153 13.402 16.6148 11.7843 16.9179C11.8606 15.8169 12.7133 15.5585 14.3447 14.7561C20.8365 11.5634 24.5427 13.385 26.1994 12.5971L26.1967 10.5712C17.2102 9.09566 7.74157 14.2581 3.223 22.1913C-1.92068 31.222 -0.323531 41.9224 5.67377 48.7287L7.13502 47.1941C6.51445 45.6275 4.02612 43.2957 2.9558 38.4327C2.29112 35.4127 2.22092 29.4546 3.67644 27.0657L3.79778 27.3569C3.81191 27.4016 3.83372 27.4587 3.84757 27.5095C3.8617 27.5614 3.8742 27.6137 3.88665 27.669C3.90299 27.7415 3.96588 28.2575 3.97509 28.3357L4.66304 32.2851C6.71622 41.0768 9.22642 42.6959 10.1982 45.2706C8.91467 46.4009 7.3612 48.4614 6.18507 49.9005C5.44586 50.805 2.87873 54.2623 2.63171 55.2193C4.47442 54.7616 10.5359 48.3614 11.5947 47.0081C15.3041 50.5082 13.6087 49.604 18.0899 52.6854L18.7649 53.2155C18.7894 53.238 18.8525 53.3596 18.8699 53.3256C18.8875 53.2913 18.9419 53.3984 18.9735 53.4385C17.4018 54.2095 16.3241 53.7682 14.0816 52.6458C12.5206 51.8645 10.5638 50.2842 10.0551 50.1719C9.52426 50.7769 9.09999 51.0694 8.73553 51.6399C9.96952 53.8038 18.4132 57.4922 22.799 57.0044L23.0342 54.8749L22.0942 54.637L23.9017 53.823C24.0395 55.0807 23.9612 57.5871 23.9682 58.9851C23.9772 60.8044 24.0213 62.0564 24.1896 63.8175Z" fill="#AD2E95"/>
</svg>
