<svg xmlns="http://www.w3.org/2000/svg" width="14" height="44" viewBox="0 0 14 44" fill="none">
<path d="M13.418 5.6086V1.29499C13.418 0.921104 13.2032 0.71463 13.0581 0.943425L0.479951 20.5919C0.373082 20.7581 0.286608 20.9709 0.227124 21.2142C0.16764 21.4574 0.136719 21.7246 0.136719 21.9953C0.136719 22.2661 0.16764 22.5333 0.227124 22.7765C0.286608 23.0197 0.373082 23.2326 0.479951 23.3988L13.0581 43.0472C13.206 43.276 13.418 43.0695 13.418 42.6957V38.382C13.418 38.1086 13.3538 37.8463 13.2478 37.6789L3.20317 21.9981L13.2478 6.31173C13.3538 6.14432 13.418 5.88204 13.418 5.6086V5.6086Z" fill="#AD2E95"/>
</svg>