<svg xmlns="http://www.w3.org/2000/svg" width="17" height="16" viewBox="0 0 17 16" fill="none">
<path d="M15.1771 8.38707C15.4771 7.99064 15.6431 7.50492 15.6431 6.99957C15.6431 6.19778 15.1949 5.43885 14.4735 5.01564C14.2878 4.9067 14.0763 4.84937 13.861 4.84957H9.57885L9.68599 2.65492C9.71099 2.12457 9.52349 1.621 9.15921 1.23707C8.98043 1.04783 8.76475 0.897269 8.52549 0.794683C8.28622 0.692098 8.02846 0.63967 7.76814 0.640638C6.83957 0.640638 6.01814 1.26564 5.77171 2.16028L4.23778 7.71385H1.92885C1.61278 7.71385 1.35742 7.96921 1.35742 8.28528V14.7853C1.35742 15.1014 1.61278 15.3567 1.92885 15.3567H12.6664C12.8306 15.3567 12.9914 15.3246 13.1396 15.2603C13.9896 14.8978 14.5378 14.0674 14.5378 13.146C14.5378 12.921 14.5056 12.6996 14.4414 12.4853C14.7414 12.0889 14.9074 11.6031 14.9074 11.0978C14.9074 10.8728 14.8753 10.6514 14.811 10.4371C15.111 10.0406 15.2771 9.55492 15.2771 9.04957C15.2735 8.82457 15.2414 8.60135 15.1771 8.38707V8.38707ZM2.64314 14.071V8.99957H4.08957V14.071H2.64314ZM14.0074 7.76742L13.6164 8.10671L13.8646 8.56028C13.9463 8.70969 13.9887 8.87746 13.9878 9.04778C13.9878 9.34242 13.8592 9.62278 13.6378 9.81564L13.2467 10.1549L13.4949 10.6085C13.5767 10.7579 13.6191 10.9257 13.6181 11.096C13.6181 11.3906 13.4896 11.671 13.2681 11.8639L12.8771 12.2031L13.1253 12.6567C13.2071 12.8061 13.2495 12.9739 13.2485 13.1442C13.2485 13.5442 13.0128 13.9049 12.6485 14.0692H5.23242V8.94242L7.00921 2.50492C7.05502 2.33992 7.15338 2.19436 7.28936 2.09027C7.42534 1.98619 7.59154 1.92927 7.76278 1.92814C7.89849 1.92814 8.03242 1.96742 8.13957 2.04778C8.31635 2.17992 8.41099 2.37992 8.40028 2.59242L8.22885 6.13528H13.8431C14.161 6.32992 14.3574 6.6585 14.3574 6.99957C14.3574 7.29421 14.2289 7.57278 14.0074 7.76742Z" fill="#AD2E95"/>
</svg>