
<svg class="logo-color" width="67" height="87" viewBox="0 0 67 87" fill="none" xmlns="http://www.w3.org/2000/svg">
<path class="logo-color" fill-rule="evenodd" clip-rule="evenodd" d="M41.5909 52.993C43.9361 51.6055 45.8789 49.7663 47.602 48.2532L49.5591 46.153C51.1069 44.4978 51.53 43.6613 52.6192 42.4381C52.6388 42.4161 52.6822 42.3675 52.7138 42.3324C52.0996 45.9341 44.4002 52.6159 42.01 53.0599C41.2079 53.2088 41.8031 53.1266 41.5909 52.993ZM38.8227 47.7785C40.538 44.6678 41.3033 45.6147 43.6093 38.8412C44.5579 39.0454 45.8538 39.7728 46.5007 40.2356C45.6296 41.8208 42.5295 44.9509 41.0336 46.131C40.3017 46.7084 39.5545 47.4743 38.8227 47.7785ZM33.5756 46.8076C33.9256 46.1357 35.3869 44.7934 36.6576 42.3336C37.618 40.4743 38.0803 38.8347 38.847 36.8051L41.4912 37.7371C41.2255 39.9224 36.8246 47.9847 35.2035 47.721C34.756 47.6482 33.8746 47.1113 33.5756 46.8076ZM31.6532 45.328C30.1691 44.7938 30.7019 44.1811 31.7101 40.4933C32.0267 39.3349 32.7794 35.8634 33.1996 35.0844C33.7556 35.1296 35.956 35.7214 36.5073 35.9282C36.341 38.6415 33.0874 44.3292 31.6532 45.328ZM28.7139 42.6991C28.3102 42.4945 27.6606 41.4613 27.4464 41.1592C26.894 40.3801 26.5501 40.2149 26.5585 39.0859C26.5726 37.1869 27.1139 35.7802 27.6098 34.2516L30.7695 34.5098C30.8114 35.2023 29.0449 41.9594 28.7139 42.6991ZM25.0707 34.07C25.0893 34.5912 24.8398 35.6639 24.4623 36.122L23.7381 34.0406L25.0707 34.07ZM49.71 35.4032C49.4548 36.1815 48.4318 37.8007 47.8899 38.2845C45.8667 37.5672 42.9487 35.3547 36.7682 33.5775C34.1073 32.8124 29.6168 31.7926 26.8286 31.7362C25.6825 31.713 24.027 31.9389 23.1095 31.6005C22.6406 31.3405 22.3823 29.4392 22.3804 28.8428C27.8698 28.5484 32.8508 28.6859 37.9212 30.0962C40.5412 30.8249 48.4861 33.7424 49.71 35.4032ZM21.7634 23.5628C23.1273 23.4293 24.4242 23.0755 25.918 22.8761C34.9418 21.6717 45.4489 23.9336 52.1256 29.7747C52.1034 30.6336 51.3308 32.2464 50.9642 33.0699C50.1452 32.9611 48.7272 31.9425 47.9238 31.4979C45.4022 30.1025 41.0821 28.485 38.3257 27.7862C34.5024 26.817 30.3211 26.3405 26.241 26.3461C24.8681 26.3481 23.0992 26.5844 21.9541 26.4871L21.7634 23.5628ZM35.0673 50.2869C34.6265 50.9426 33.6555 51.2193 32.8469 51.6679C31.6481 52.3329 31.3674 52.0089 30.2347 51.3149C22.1406 46.356 17.7355 38.5602 16.4256 28.9769C16.2467 27.6679 15.7357 23.5345 16.0252 22.2972C16.2044 21.5314 18.7389 18.7143 19.3209 18.4185C19.5191 22.6809 19.3329 25.4824 20.1244 29.5303C20.8032 33.0015 21.7525 35.5276 23.1726 38.4718C24.4493 41.1185 27.7395 45.3646 29.827 46.8908C30.4136 47.3197 30.8422 47.6456 31.5008 48.1218C32.9616 49.178 34.4199 49.8008 35.0673 50.2869ZM34.1901 63.8175H34.563C35.2969 60.6806 35.7883 58.745 36.2022 55.4221C36.4145 53.7178 36.0234 52.602 36.9753 51.9301L40.298 49.6573C41.797 48.5342 42.7228 47.7177 43.8414 46.6259C46.1317 44.3905 47.9263 42.5079 49.9971 39.4419C51.1067 37.799 53.8886 32.7085 54.3573 30.8926C55.1045 34.0283 53.3188 36.698 52.0037 38.9376C49.3116 43.5219 45.5791 47.4873 41.3784 50.3462C38.5519 52.2698 37.2033 52.3096 37.0788 54.1409C37.0279 54.8912 37.0151 56.0922 37.0568 56.8391C38.8293 56.7397 39.9284 55.6538 41.5278 56.4645C44.7068 58.0756 47.0596 58.6343 50.7886 58.0131C53.9237 57.4907 53.8484 58.1203 55.4273 58.5503C55.8627 57.8125 56.2929 57.6942 56.7874 57.0522C54.2543 53.6972 47.4409 57.5073 43.7859 54.9259L48.179 51.9315C55.9801 45.9856 58.7964 35.5524 55.526 25.8251C54.449 22.6215 51.8971 18.736 49.8229 17.096C49.3002 17.8116 48.2637 18.5838 47.727 19.5394C50.1232 20.7822 49.9008 20.4029 51.3886 22.6217C52.1554 23.7653 53.5035 25.9099 53.0747 27.2717C52.2629 27.1356 51.4355 26.4082 50.7704 25.9476C48.6981 24.5123 44.3704 22.6224 44.0202 22.2592L50.8653 14.6047C54.1878 10.7664 53.3966 13.5075 55.4099 12.0001C57.0837 10.7469 56.6858 8.15696 54.9375 7.28158C52.9144 6.26868 50.8779 7.86356 50.8397 9.70448C50.7901 12.0917 51.5047 10.3766 48.3249 13.9989L41.5876 21.4837C40.5385 21.5031 39.7172 21.231 38.8312 20.9244C39.121 16.9721 39.4993 12.8472 39.7461 8.72546C40.0641 3.41557 40.532 6.18101 41.6297 4.01319C43.2368 0.839016 38.8623 -1.19615 37.0605 0.780077C36.575 1.31248 36.1619 2.32814 36.3149 3.27647C36.5045 4.45217 37.3577 4.7355 37.5794 5.32338C37.882 6.12596 37.1337 13.4171 37.0271 14.4996C36.8365 16.4352 36.8043 18.6477 36.5115 20.5289C33.7089 20.4875 31.8139 20.0675 28.7039 20.3028C26.0132 20.5065 24.127 20.9214 21.6087 21.244L21.6211 19.551C22.7941 18.8709 26.69 17.9215 28.2344 17.6864C35.6817 16.5529 36.1198 18.1482 35.9091 14.7477C33.2918 14.7016 30.8137 14.8907 28.3795 15.3234C25.613 15.8153 23.4024 16.6148 21.7847 16.9179C21.861 15.8169 22.7137 15.5585 24.3451 14.7561C30.837 11.5634 34.5432 13.385 36.1998 12.5971L36.1971 10.5712C27.2106 9.09566 17.742 14.2581 13.2234 22.1913C8.07974 31.222 9.6769 41.9224 15.6742 48.7287L17.1354 47.1941C16.5149 45.6275 14.0265 43.2957 12.9562 38.4327C12.2915 35.4127 12.2214 29.4546 13.6769 27.0657L13.7982 27.3569C13.8123 27.4016 13.8341 27.4587 13.848 27.5095C13.8621 27.5614 13.8746 27.6137 13.8871 27.669C13.9034 27.7415 13.9663 28.2575 13.9755 28.3357L14.6635 32.2851C16.7167 41.0768 19.2268 42.6959 20.1986 45.2706C18.9151 46.4009 17.3616 48.4614 16.1855 49.9005C15.4463 50.805 12.8792 54.2623 12.6321 55.2193C14.4748 54.7616 20.5363 48.3614 21.5951 47.0081C25.3046 50.5082 23.6091 49.604 28.0904 52.6854L28.7653 53.2155C28.7898 53.238 28.8529 53.3596 28.8704 53.3256C28.8879 53.2913 28.9423 53.3984 28.9739 53.4385C27.4023 54.2095 26.3245 53.7682 24.0821 52.6458C22.521 51.8645 20.5642 50.2842 20.0556 50.1719C19.5247 50.7769 19.1004 51.0694 18.736 51.6399C19.9699 53.8038 28.4136 57.4922 32.7994 57.0044L33.0347 54.8749L32.0946 54.637L33.9021 53.823C34.0399 55.0807 33.9617 57.5871 33.9686 58.9851C33.9776 60.8044 34.0217 62.0564 34.1901 63.8175Z" fill="#AD2E95"/>
<path class="logo-color" fill-rule="evenodd" clip-rule="evenodd" d="M44.395 15.8466C43.3266 15.6953 41.0416 14.9752 40.0402 15.1941L40.002 17.3853L43.52 18.0363C43.9406 17.5571 46.3985 14.8459 46.5705 14.2785C44.8842 13.6766 42.6766 11.746 40.3821 11.459L40.2498 13.6759C41.4481 14.5079 43.4461 14.8229 44.395 15.8466Z" fill="#AD2E95"/>
<path class="logo-color" d="M4.99188 81.0641C4.15405 81.0641 3.41685 80.8769 2.78029 80.5024C2.14841 80.128 1.65694 79.592 1.30589 78.8946C0.954847 78.1972 0.779323 77.3758 0.779323 76.4303C0.779323 75.4239 0.943145 74.5042 1.27079 73.6711C1.59843 72.8332 2.07352 72.1733 2.69604 71.6911C3.07517 71.4009 3.48238 71.1903 3.91768 71.0593C4.35298 70.9235 4.83976 70.8557 5.37803 70.8557C5.61207 70.8557 5.85078 70.872 6.09417 70.9048C6.33756 70.9376 6.61138 70.9844 6.91562 71.0452L7.8143 70.9188L8.08109 73.4885L7.40708 73.65L6.74712 72.1896C6.44288 72.0586 6.15502 71.9626 5.88354 71.9018C5.61675 71.8409 5.3008 71.8105 4.93572 71.8105C4.59403 71.8105 4.26639 71.8643 3.95278 71.972C3.64386 72.075 3.40047 72.2037 3.22261 72.3581C2.91369 72.6343 2.66093 73.0696 2.46435 73.664C2.27244 74.2585 2.17649 74.9933 2.17649 75.8686C2.17649 76.4022 2.24904 76.9288 2.39414 77.4483C2.54392 77.9632 2.75455 78.3985 3.02602 78.7542C3.33494 79.1567 3.68833 79.454 4.08618 79.6459C4.48404 79.8378 4.90529 79.9337 5.34995 79.9337C5.57462 79.9337 5.87652 79.8822 6.25565 79.7793C6.63478 79.6716 7.00455 79.5523 7.36496 79.4212C7.72537 79.2901 7.97578 79.1895 8.1162 79.1193L8.43214 79.6037C7.89855 80.1139 7.36964 80.486 6.84541 80.7201C6.32586 80.9494 5.70802 81.0641 4.99188 81.0641ZM9.21146 74.8295L9.27465 74.4925L11.1984 74.0783L11.5073 75.4754C11.8209 74.9325 12.1088 74.5533 12.3709 74.338C12.6377 74.118 12.9302 74.0081 13.2485 74.0081C13.3608 74.0081 13.4825 74.0244 13.6136 74.0572C13.7493 74.09 13.8734 74.1391 13.9857 74.2046C14.1074 74.2702 14.2057 74.3544 14.2806 74.4574C14.3601 74.5604 14.3999 74.6774 14.3999 74.8084C14.3999 74.9535 14.3555 75.1057 14.2665 75.2648C14.1823 75.4193 14.0723 75.548 13.9366 75.651C13.8055 75.7539 13.6744 75.8054 13.5434 75.8054C13.4591 75.8054 13.3725 75.7961 13.2836 75.7773C13.1994 75.7539 13.1245 75.7282 13.0589 75.7001L12.9185 74.9208C12.7172 75.005 12.4879 75.1408 12.2305 75.328C11.9777 75.5152 11.7507 75.7001 11.5494 75.8826V79.9407L13.3538 80.2637L13.2345 80.8184H9.14827L9.26763 80.2075L10.2927 79.8635V75.3701L9.21146 74.8295ZM15.0248 79.1263C15.0248 78.677 15.1044 78.3306 15.2635 78.0872C15.4226 77.8438 15.6941 77.6426 16.0779 77.4834C16.3494 77.3664 16.6911 77.2798 17.103 77.2236C17.5196 77.1675 17.9104 77.1394 18.2755 77.1394C18.4674 77.1394 18.6546 77.1464 18.8372 77.1605V76.7813C18.8372 76.3507 18.788 75.9599 18.6897 75.6088C18.5961 75.2531 18.4089 74.998 18.128 74.8435C18.0298 74.7874 17.8987 74.7453 17.7349 74.7172C17.5757 74.6891 17.4072 74.675 17.2294 74.675C17.0702 74.675 16.9134 74.6914 16.759 74.7242L16.5203 76.002C16.3892 76.0722 16.2464 76.1073 16.092 76.1073C15.9703 76.1073 15.8439 76.0722 15.7128 76.002C15.5865 75.9318 15.4812 75.8382 15.3969 75.7212C15.3127 75.6041 15.2705 75.4801 15.2705 75.3491C15.2705 75.101 15.4671 74.8669 15.8603 74.647C16.0943 74.5206 16.3705 74.4059 16.6888 74.3029C17.0117 74.2 17.3183 74.1204 17.6085 74.0642C17.9034 74.0034 18.1234 73.973 18.2685 73.973C18.9144 73.973 19.3801 74.1625 19.6656 74.5416C19.9511 74.9208 20.0939 75.4356 20.0939 76.0863V79.4703C20.2671 79.6482 20.452 79.7956 20.6486 79.9127C20.8451 80.025 21.0651 80.1092 21.3085 80.1654L21.2243 80.5726C20.9622 80.6943 20.6907 80.7903 20.4098 80.8605C20.1337 80.9354 19.8716 80.9798 19.6235 80.9939C19.5486 80.7739 19.4644 80.5773 19.3708 80.4041C19.2818 80.2309 19.1671 80.0601 19.0267 79.8916C18.9238 80.0414 18.7459 80.2052 18.4931 80.3831C18.2404 80.5562 17.9619 80.7013 17.6576 80.8184C17.3581 80.9354 17.0843 80.9939 16.8362 80.9939C16.4243 80.9939 16.0826 80.9003 15.8111 80.713C15.5397 80.5211 15.3407 80.2824 15.2144 79.9969C15.088 79.7114 15.0248 79.4212 15.0248 79.1263ZM17.0468 80.032C17.1077 80.0601 17.1872 80.0741 17.2855 80.0741C17.4962 80.0741 17.7559 80.032 18.0649 79.9478C18.3785 79.8588 18.6359 79.7629 18.8372 79.6599V77.6028C18.3738 77.6355 17.9736 77.694 17.6366 77.7783C17.2996 77.8625 17.0351 77.9538 16.8432 78.0521C16.6513 78.1457 16.5203 78.2323 16.45 78.3119C16.3611 78.4008 16.3166 78.5553 16.3166 78.7753C16.3166 78.9344 16.3494 79.1029 16.4149 79.2808C16.4851 79.4586 16.5764 79.6178 16.6888 79.7582C16.8011 79.8939 16.9204 79.9852 17.0468 80.032ZM22.9304 79.8635V75.1244L21.7719 74.7663L21.8913 74.1485H22.9304C22.9304 73.2826 23.0193 72.5828 23.1972 72.0492C23.3797 71.5156 23.6699 71.1225 24.0678 70.8697C24.4703 70.6123 25.0062 70.4835 25.6755 70.4835C26.1717 70.4835 26.5578 70.5491 26.834 70.6801C26.9651 70.741 27.0751 70.8252 27.164 70.9329C27.2529 71.0359 27.2974 71.1576 27.2974 71.298C27.2974 71.4337 27.2529 71.5718 27.164 71.7122C27.0797 71.8479 26.9721 71.9603 26.841 72.0492C26.7146 72.1335 26.5906 72.1756 26.4689 72.1756C26.3285 72.1756 26.1787 72.1358 26.0196 72.0562L25.7949 70.9118C25.3362 70.9774 24.9875 71.1646 24.7488 71.4735C24.5148 71.7777 24.3603 72.1475 24.2854 72.5828C24.2152 73.0134 24.1801 73.5353 24.1801 74.1485H26.3706L26.2723 74.7172L24.1801 75.1103V79.9337L25.9634 80.2637L25.8441 80.8184H21.786L21.9053 80.2075L22.9304 79.8635ZM26.7006 74.1485H27.7397L27.8871 72.6109L28.9964 72.1545V74.1485H31.2221L31.1098 74.7593L28.9964 75.1244V78.2417C28.9964 78.6489 29.0526 79.0187 29.165 79.351C29.2773 79.6786 29.4411 79.9033 29.6564 80.025C29.736 80.0671 29.846 80.0882 29.9864 80.0882C30.2485 80.0882 30.5317 80.0484 30.8359 79.9688C31.1402 79.8846 31.3087 79.8401 31.3414 79.8354L31.4748 80.1654C31.1893 80.362 30.8547 80.5492 30.4708 80.7271C30.0917 80.905 29.7734 80.9939 29.516 80.9939C28.3318 80.9939 27.7397 80.1958 27.7397 78.5997V75.1244L26.5742 74.7733L26.7006 74.1485ZM36.544 71.7333C36.4737 71.7286 36.3637 71.7263 36.214 71.7263C35.8161 71.7263 35.4463 71.7637 35.1047 71.8386C34.763 71.9135 34.4798 72.0094 34.2551 72.1264C34.0305 72.2388 33.8854 72.3558 33.8198 72.4775C33.7683 72.5664 33.7286 72.6881 33.7005 72.8426C33.6771 72.9924 33.6654 73.1398 33.6654 73.2849C33.6654 73.6453 33.7449 73.9355 33.9041 74.1555C34.0679 74.3708 34.2879 74.5487 34.564 74.6891C34.8449 74.8248 35.2755 75.0027 35.8559 75.2227C36.3754 75.4193 36.8037 75.6205 37.1407 75.8265C37.4824 76.0324 37.7586 76.3062 37.9692 76.6479C38.1845 76.9849 38.2922 77.4085 38.2922 77.9187C38.2922 78.5412 38.1424 79.0912 37.8428 79.5686C37.5433 80.0461 37.1267 80.4158 36.5931 80.6779C36.0595 80.9354 35.451 81.0641 34.7677 81.0641C34.2153 81.0641 33.6911 80.9845 33.195 80.8254C32.6988 80.6662 32.2869 80.472 31.9593 80.2426L32.4859 77.9749L33.2231 78.1715L33.3705 80.039C33.553 80.0531 33.752 80.0601 33.9673 80.0601C34.5336 80.0601 35.0742 80.0016 35.5891 79.8846C36.1087 79.7629 36.4503 79.585 36.6142 79.351C36.6844 79.248 36.7405 79.1029 36.7827 78.9157C36.8248 78.7285 36.8459 78.5342 36.8459 78.3329C36.8459 77.9445 36.7616 77.6309 36.5931 77.3921C36.4246 77.1488 36.2116 76.9592 35.9542 76.8234C35.7014 76.683 35.3387 76.5215 34.8659 76.339C34.3464 76.1424 33.9111 75.9365 33.5601 75.7212C33.209 75.5059 32.9212 75.2203 32.6965 74.8646C32.4718 74.5042 32.3595 74.0525 32.3595 73.5096C32.3595 72.9853 32.5116 72.522 32.8158 72.1194C33.1201 71.7169 33.5273 71.4056 34.0375 71.1856C34.5477 70.9657 35.1023 70.8557 35.7014 70.8557C35.9402 70.8557 36.1906 70.8791 36.4527 70.9259C36.7195 70.9727 36.9301 71.0171 37.0846 71.0593L37.8218 71.0312L38.0675 73.4815L37.4145 73.657L36.544 71.7333ZM47.1315 80.2426L47.0122 80.8184H43.8387L43.9581 80.2075L44.6953 79.8986V76.9568C44.6953 76.4747 44.6297 76.0792 44.4987 75.7703C44.3676 75.4614 44.2108 75.2391 44.0283 75.1033C43.9347 75.0425 43.8434 75.012 43.7545 75.012C43.5719 75.012 43.2489 75.0659 42.7856 75.1735C42.3222 75.2812 41.922 75.3912 41.585 75.5035V79.9337L42.7505 80.2426L42.6241 80.8184H39.2119L39.3313 80.2356L40.3282 79.9337V71.7824L39.247 71.2348L39.3102 70.9048L41.585 70.4835V75.1174C42.0016 74.8038 42.4509 74.537 42.933 74.317C43.4151 74.097 43.834 73.987 44.1897 73.987C44.494 73.987 44.7772 74.0666 45.0393 74.2257C45.3061 74.3802 45.5237 74.6446 45.6922 75.0191C45.8654 75.3888 45.952 75.8756 45.952 76.4794V79.9337L47.1315 80.2426ZM47.7002 79.1263C47.7002 78.677 47.7798 78.3306 47.9389 78.0872C48.0981 77.8438 48.3695 77.6426 48.7534 77.4834C49.0248 77.3664 49.3665 77.2798 49.7784 77.2236C50.195 77.1675 50.5858 77.1394 50.9509 77.1394C51.1428 77.1394 51.33 77.1464 51.5126 77.1605V76.7813C51.5126 76.3507 51.4634 75.9599 51.3651 75.6088C51.2715 75.2531 51.0843 74.998 50.8035 74.8435C50.7052 74.7874 50.5741 74.7453 50.4103 74.7172C50.2512 74.6891 50.0826 74.675 49.9048 74.675C49.7456 74.675 49.5888 74.6914 49.4344 74.7242L49.1957 76.002C49.0646 76.0722 48.9219 76.1073 48.7674 76.1073C48.6457 76.1073 48.5193 76.0722 48.3883 76.002C48.2619 75.9318 48.1566 75.8382 48.0723 75.7212C47.9881 75.6041 47.9459 75.4801 47.9459 75.3491C47.9459 75.101 48.1425 74.8669 48.5357 74.647C48.7697 74.5206 49.0459 74.4059 49.3642 74.3029C49.6871 74.2 49.9937 74.1204 50.2839 74.0642C50.5788 74.0034 50.7988 73.973 50.9439 73.973C51.5898 73.973 52.0555 74.1625 52.341 74.5416C52.6266 74.9208 52.7693 75.4356 52.7693 76.0863V79.4703C52.9425 79.6482 53.1274 79.7956 53.324 79.9127C53.5206 80.025 53.7406 80.1092 53.9839 80.1654L53.8997 80.5726C53.6376 80.6943 53.3661 80.7903 53.0853 80.8605C52.8091 80.9354 52.547 80.9798 52.2989 80.9939C52.224 80.7739 52.1398 80.5773 52.0462 80.4041C51.9572 80.2309 51.8426 80.0601 51.7021 79.8916C51.5992 80.0414 51.4213 80.2052 51.1686 80.3831C50.9158 80.5562 50.6373 80.7013 50.3331 80.8184C50.0335 80.9354 49.7597 80.9939 49.5116 80.9939C49.0997 80.9939 48.758 80.9003 48.4866 80.713C48.2151 80.5211 48.0162 80.2824 47.8898 79.9969C47.7634 79.7114 47.7002 79.4212 47.7002 79.1263ZM49.7222 80.032C49.7831 80.0601 49.8627 80.0741 49.961 80.0741C50.1716 80.0741 50.4314 80.032 50.7403 79.9478C51.0539 79.8588 51.3113 79.7629 51.5126 79.6599V77.6028C51.0492 77.6355 50.649 77.694 50.312 77.7783C49.975 77.8625 49.7105 77.9538 49.5186 78.0521C49.3267 78.1457 49.1957 78.2323 49.1255 78.3119C49.0365 78.4008 48.9921 78.5553 48.9921 78.7753C48.9921 78.9344 49.0248 79.1029 49.0904 79.2808C49.1606 79.4586 49.2518 79.6178 49.3642 79.7582C49.4765 79.8939 49.5959 79.9852 49.7222 80.032ZM54.4965 74.8295L54.5597 74.4925L56.4834 74.0783L56.7923 75.4754C57.1059 74.9325 57.3938 74.5533 57.6559 74.338C57.9227 74.118 58.2152 74.0081 58.5335 74.0081C58.6458 74.0081 58.7675 74.0244 58.8986 74.0572C59.0343 74.09 59.1584 74.1391 59.2707 74.2046C59.3924 74.2702 59.4907 74.3544 59.5656 74.4574C59.6452 74.5604 59.6849 74.6774 59.6849 74.8084C59.6849 74.9535 59.6405 75.1057 59.5515 75.2648C59.4673 75.4193 59.3573 75.548 59.2216 75.651C59.0905 75.7539 58.9594 75.8054 58.8284 75.8054C58.7441 75.8054 58.6575 75.7961 58.5686 75.7773C58.4844 75.7539 58.4095 75.7282 58.3439 75.7001L58.2035 74.9208C58.0023 75.005 57.7729 75.1408 57.5155 75.328C57.2627 75.5152 57.0357 75.7001 56.8344 75.8826V79.9407L58.6388 80.2637L58.5195 80.8184H54.4333L54.5526 80.2075L55.5777 79.8635V75.3701L54.4965 74.8295ZM63.6728 79.9829C63.8835 79.9829 64.1152 79.9524 64.3679 79.8916C64.6253 79.8307 64.8617 79.7605 65.077 79.681C65.2923 79.5967 65.4468 79.5288 65.5404 79.4774L65.7089 79.7231C65.5544 79.9056 65.3438 80.0952 65.077 80.2918C64.8149 80.4884 64.52 80.6545 64.1924 80.7903C63.8647 80.926 63.5418 80.9939 63.2235 80.9939C62.6852 80.9939 62.2008 80.8792 61.7702 80.6499C61.3395 80.4205 60.9955 80.0554 60.7381 79.5546C60.4807 79.0538 60.3519 78.4149 60.3519 77.6379C60.3519 76.9592 60.4853 76.3413 60.7521 75.7844C61.0189 75.2227 61.3934 74.7804 61.8755 74.4574C62.3623 74.1344 62.9146 73.973 63.5324 73.973C63.9958 73.973 64.3937 74.0736 64.726 74.2749C65.063 74.4714 65.3181 74.7406 65.4913 75.0823C65.6691 75.4193 65.7581 75.7961 65.7581 76.2126C65.7581 76.5215 65.7089 76.8352 65.6106 77.1534C65.5825 77.2377 65.5474 77.2985 65.5053 77.336C65.4679 77.3734 65.407 77.3921 65.3228 77.3921H61.5525C61.5853 77.8415 61.6929 78.2651 61.8755 78.6629C62.0627 79.0561 62.3108 79.3744 62.6197 79.6178C62.9333 79.8612 63.2843 79.9829 63.6728 79.9829ZM62.8514 74.7944C62.491 74.7944 62.2523 74.8529 62.1353 74.9699C62.0042 75.1057 61.8802 75.342 61.7631 75.679C61.6461 76.0114 61.5759 76.4069 61.5525 76.8656L64.5926 76.6269C64.5926 76.2384 64.513 75.906 64.3539 75.6299C64.1994 75.3537 63.9911 75.1454 63.729 75.005C63.4669 74.8646 63.1743 74.7944 62.8514 74.7944Z" fill="#AD2E95"/>
</svg>