<svg xmlns="http://www.w3.org/2000/svg" width="32" height="32" viewBox="0 0 32 32" fill="none">
<path fill-rule="evenodd" clip-rule="evenodd" d="M23.5795 13.474C23.5795 19.0551 19.0551 23.5795 13.474 23.5795C7.89288 23.5795 3.3685 19.0551 3.3685 13.474C3.3685 7.89288 7.89288 3.3685 13.474 3.3685C19.0551 3.3685 23.5795 7.89288 23.5795 13.474ZM21.7369 24.1178C19.4551 25.8916 16.5879 26.948 13.474 26.948C6.03251 26.948 0 20.9155 0 13.474C0 6.03251 6.03251 0 13.474 0C20.9155 0 26.948 6.03251 26.948 13.474C26.948 16.5874 25.892 19.4542 24.1186 21.7358L31.5083 29.1255C32.1661 29.7832 32.1661 30.8496 31.5083 31.5074C30.8506 32.1651 29.7842 32.1651 29.1265 31.5074L21.7369 24.1178Z" fill="#AD2E95"/>
</svg>