<svg xmlns="http://www.w3.org/2000/svg" width="16" height="16" viewBox="0 0 16 16" fill="none">
<path fill-rule="evenodd" clip-rule="evenodd" d="M16 8C16 12.4183 12.4183 16 8 16C3.58172 16 0 12.4183 0 8C0 3.58172 3.58172 0 8 0C12.4183 0 16 3.58172 16 8ZM5.35697 7.26713C4.55558 7.61703 3.73215 7.97655 2.97921 8.39128L2.97916 8.39134C2.586 8.67919 3.10859 8.88279 3.59882 9.07378C3.67675 9.10415 3.75387 9.13419 3.82636 9.16421C3.88668 9.18274 3.94803 9.20229 4.01019 9.22209C4.55541 9.3958 5.16338 9.5895 5.69269 9.29812C6.56222 8.79864 7.38279 8.22116 8.20275 7.64412C8.47139 7.45506 8.73996 7.26606 9.01016 7.07986C9.02282 7.07176 9.03711 7.06249 9.05272 7.05237C9.28291 6.90316 9.80059 6.5676 9.60911 7.02998C9.15628 7.52518 8.67127 7.96354 8.18361 8.40429C7.85496 8.70133 7.52511 8.99945 7.20311 9.31678C6.92265 9.54465 6.63144 10.0029 6.94547 10.322C7.66877 10.8283 8.40338 11.3224 9.13756 11.8162C9.37647 11.9769 9.61533 12.1375 9.85374 12.2986C10.2578 12.6212 10.8893 12.3602 10.9781 11.8561C11.0176 11.6242 11.0573 11.3923 11.097 11.1604C11.3162 9.87887 11.5354 8.59686 11.7291 7.31112C11.7555 7.10945 11.7853 6.90777 11.8152 6.706C11.8875 6.21696 11.96 5.72732 11.9826 5.23565C11.9243 4.74501 11.3294 4.85289 10.9983 4.96321C9.29655 5.61075 7.61181 6.30628 5.93375 7.01408C5.74365 7.0983 5.55096 7.18243 5.35697 7.26713Z" fill="#AD2E95"/>
</svg>